<svg width="309" height="123" viewBox="0 0 309 123" fill="none" xmlns="http://www.w3.org/2000/svg">
<path d="M35.417 41.6667H45.8337V37.5C45.8336 36.2011 45.4288 34.9345 44.6756 33.8763C43.9224 32.8181 42.8583 32.0208 41.6311 31.5953C40.4038 31.1698 39.0745 31.1373 37.828 31.5021C36.5814 31.867 35.4794 32.6112 34.6753 33.6313M35.417 41.6667H14.5837M35.417 41.6667V37.5C35.417 36.1333 35.1545 34.8271 34.6753 33.6313M34.6753 33.6313C33.9017 31.6978 32.5665 30.0406 30.842 28.8732C29.1175 27.7058 27.0828 27.0819 25.0003 27.0819C22.9179 27.0819 20.8832 27.7058 19.1587 28.8732C17.4342 30.0406 16.099 31.6978 15.3253 33.6313M14.5837 41.6667H4.16699V37.5C4.16709 36.2011 4.57186 34.9345 5.32504 33.8763C6.07822 32.8181 7.14238 32.0208 8.3696 31.5953C9.59682 31.1698 10.9261 31.1373 12.1727 31.5021C13.4193 31.867 14.5212 32.6112 15.3253 33.6313M14.5837 41.6667V37.5C14.5837 36.1333 14.8462 34.8271 15.3253 33.6313M31.2503 14.5833C31.2503 16.2409 30.5918 17.8307 29.4197 19.0028C28.2476 20.1749 26.6579 20.8333 25.0003 20.8333C23.3427 20.8333 21.753 20.1749 20.5809 19.0028C19.4088 17.8307 18.7503 16.2409 18.7503 14.5833C18.7503 12.9257 19.4088 11.336 20.5809 10.1639C21.753 8.99182 23.3427 8.33334 25.0003 8.33334C26.6579 8.33334 28.2476 8.99182 29.4197 10.1639C30.5918 11.336 31.2503 12.9257 31.2503 14.5833ZM43.7503 20.8333C43.7503 21.9384 43.3113 22.9982 42.5299 23.7796C41.7485 24.561 40.6887 25 39.5837 25C38.4786 25 37.4188 24.561 36.6374 23.7796C35.856 22.9982 35.417 21.9384 35.417 20.8333C35.417 19.7283 35.856 18.6685 36.6374 17.8871C37.4188 17.1057 38.4786 16.6667 39.5837 16.6667C40.6887 16.6667 41.7485 17.1057 42.5299 17.8871C43.3113 18.6685 43.7503 19.7283 43.7503 20.8333ZM14.5837 20.8333C14.5837 21.9384 14.1447 22.9982 13.3633 23.7796C12.5819 24.561 11.5221 25 10.417 25C9.31192 25 8.25212 24.561 7.47071 23.7796C6.68931 22.9982 6.25033 21.9384 6.25033 20.8333C6.25033 19.7283 6.68931 18.6685 7.47071 17.8871C8.25212 17.1057 9.31192 16.6667 10.417 16.6667C11.5221 16.6667 12.5819 17.1057 13.3633 17.8871C14.1447 18.6685 14.5837 19.7283 14.5837 20.8333Z" stroke="#1F3B22" stroke-width="3" stroke-linecap="round" stroke-linejoin="round"/>
<path d="M14.583 41.6667H35.4163V37.5C35.4163 36.1333 35.1538 34.8271 34.6747 33.6313C33.901 31.6978 32.5658 30.0406 30.8413 28.8732C29.1168 27.7058 27.0821 27.0819 24.9997 27.0819C22.9172 27.0819 20.8825 27.7058 19.158 28.8732C17.4335 30.0406 16.0983 31.6978 15.3247 33.6313C14.8455 34.8271 14.583 36.1333 14.583 37.5V41.6667Z" stroke="#61B47C" stroke-width="3" stroke-linecap="round" stroke-linejoin="round"/>
<path d="M29.4191 19.0028C30.5912 17.8307 31.2497 16.2409 31.2497 14.5833C31.2497 12.9257 30.5912 11.336 29.4191 10.1639C28.247 8.99182 26.6573 8.33334 24.9997 8.33334C23.3421 8.33334 21.7524 8.99182 20.5803 10.1639C19.4082 11.336 18.7497 12.9257 18.7497 14.5833C18.7497 16.2409 19.4082 17.8307 20.5803 19.0028C21.7524 20.1749 23.3421 20.8333 24.9997 20.8333C26.6573 20.8333 28.247 20.1749 29.4191 19.0028Z" stroke="#61B47C" stroke-width="3" stroke-linecap="round" stroke-linejoin="round"/>
<line y1="61.75" x2="309" y2="61.75" stroke="#1F3B22" stroke-width="0.5"/>
<path d="M3.17427 110V84.62H19.5903V87.644H6.77427V95.6H18.8343V98.624H6.77427V106.976H19.5903V110H3.17427ZM22.3575 110L29.6655 100.928L22.8255 92.432H27.0735L31.7895 98.444L36.5055 92.432H40.7535L33.8775 100.964L41.2215 110H36.9015L31.7535 103.52L26.6415 110H22.3575ZM44.648 116.48V92.432H48.212V95.42C48.716 94.412 49.484 93.608 50.516 93.008C51.548 92.408 52.736 92.108 54.08 92.108C55.64 92.108 56.996 92.48 58.148 93.224C59.324 93.968 60.224 95.024 60.848 96.392C61.496 97.736 61.82 99.344 61.82 101.216C61.82 103.088 61.496 104.708 60.848 106.076C60.224 107.444 59.324 108.5 58.148 109.244C56.996 109.964 55.64 110.324 54.08 110.324C52.784 110.324 51.62 110.048 50.588 109.496C49.58 108.92 48.812 108.14 48.284 107.156V116.48H44.648ZM53.18 107.516C54.692 107.516 55.892 106.976 56.78 105.896C57.692 104.816 58.148 103.256 58.148 101.216C58.148 99.176 57.692 97.628 56.78 96.572C55.892 95.492 54.692 94.952 53.18 94.952C51.668 94.952 50.456 95.492 49.544 96.572C48.656 97.628 48.212 99.176 48.212 101.216C48.212 103.256 48.656 104.816 49.544 105.896C50.456 106.976 51.668 107.516 53.18 107.516ZM74.8815 110.324C72.0015 110.324 69.7335 109.52 68.0775 107.912C66.4215 106.28 65.5935 104.06 65.5935 101.252C65.5935 99.452 65.9535 97.868 66.6735 96.5C67.4175 95.108 68.4375 94.028 69.7335 93.26C71.0295 92.492 72.5175 92.108 74.1975 92.108C76.6215 92.108 78.5295 92.888 79.9215 94.448C81.3135 95.984 82.0095 98.108 82.0095 100.82V102.044H69.1215C69.3855 105.692 71.3175 107.516 74.9175 107.516C75.9255 107.516 76.9095 107.36 77.8695 107.048C78.8535 106.736 79.7775 106.22 80.6415 105.5L81.7215 108.02C80.9295 108.74 79.9095 109.304 78.6615 109.712C77.4135 110.12 76.1535 110.324 74.8815 110.324ZM74.3415 94.664C72.8295 94.664 71.6295 95.132 70.7415 96.068C69.8535 97.004 69.3135 98.252 69.1215 99.812H78.9495C78.8775 98.18 78.4455 96.92 77.6535 96.032C76.8615 95.12 75.7575 94.664 74.3415 94.664ZM86.6934 110V92.432H90.2214V95.564C91.1334 93.476 93.0294 92.312 95.9094 92.072L97.0974 92L97.3494 95.096L95.1534 95.312C91.9614 95.624 90.3654 97.268 90.3654 100.244V110H86.6934ZM100.519 88.364V84.584H104.767V88.364H100.519ZM100.843 110V92.432H104.479V110H100.843ZM118.561 110.324C115.681 110.324 113.413 109.52 111.757 107.912C110.101 106.28 109.273 104.06 109.273 101.252C109.273 99.452 109.633 97.868 110.353 96.5C111.097 95.108 112.117 94.028 113.413 93.26C114.709 92.492 116.197 92.108 117.877 92.108C120.301 92.108 122.209 92.888 123.601 94.448C124.993 95.984 125.689 98.108 125.689 100.82V102.044H112.801C113.065 105.692 114.997 107.516 118.597 107.516C119.605 107.516 120.589 107.36 121.549 107.048C122.533 106.736 123.457 106.22 124.321 105.5L125.401 108.02C124.609 108.74 123.589 109.304 122.341 109.712C121.093 110.12 119.833 110.324 118.561 110.324ZM118.021 94.664C116.509 94.664 115.309 95.132 114.421 96.068C113.533 97.004 112.993 98.252 112.801 99.812H122.629C122.557 98.18 122.125 96.92 121.333 96.032C120.541 95.12 119.437 94.664 118.021 94.664ZM130.373 110V92.432H133.901V95.348C134.501 94.292 135.317 93.488 136.349 92.936C137.405 92.384 138.581 92.108 139.877 92.108C144.029 92.108 146.105 94.46 146.105 99.164V110H142.469V99.38C142.469 97.868 142.169 96.764 141.569 96.068C140.993 95.372 140.081 95.024 138.833 95.024C137.369 95.024 136.193 95.492 135.305 96.428C134.441 97.34 134.009 98.552 134.009 100.064V110H130.373ZM159.575 110.324C157.775 110.324 156.215 109.952 154.895 109.208C153.599 108.44 152.591 107.372 151.871 106.004C151.151 104.612 150.791 102.98 150.791 101.108C150.791 98.324 151.583 96.128 153.167 94.52C154.751 92.912 156.887 92.108 159.575 92.108C160.679 92.108 161.771 92.3 162.851 92.684C163.931 93.068 164.819 93.596 165.515 94.268L164.363 96.824C163.691 96.2 162.947 95.744 162.131 95.456C161.339 95.144 160.583 94.988 159.863 94.988C158.159 94.988 156.839 95.528 155.903 96.608C154.991 97.664 154.535 99.176 154.535 101.144C154.535 103.112 154.991 104.66 155.903 105.788C156.839 106.892 158.159 107.444 159.863 107.444C160.583 107.444 161.339 107.3 162.131 107.012C162.947 106.7 163.691 106.232 164.363 105.608L165.515 108.2C164.819 108.848 163.919 109.364 162.815 109.748C161.735 110.132 160.655 110.324 159.575 110.324ZM177.252 110.324C174.372 110.324 172.104 109.52 170.448 107.912C168.792 106.28 167.964 104.06 167.964 101.252C167.964 99.452 168.324 97.868 169.044 96.5C169.788 95.108 170.808 94.028 172.104 93.26C173.4 92.492 174.888 92.108 176.568 92.108C178.992 92.108 180.9 92.888 182.292 94.448C183.684 95.984 184.38 98.108 184.38 100.82V102.044H171.492C171.756 105.692 173.688 107.516 177.288 107.516C178.296 107.516 179.28 107.36 180.24 107.048C181.224 106.736 182.148 106.22 183.012 105.5L184.092 108.02C183.3 108.74 182.28 109.304 181.032 109.712C179.784 110.12 178.524 110.324 177.252 110.324ZM176.712 94.664C175.2 94.664 174 95.132 173.112 96.068C172.224 97.004 171.684 98.252 171.492 99.812H181.32C181.248 98.18 180.816 96.92 180.024 96.032C179.232 95.12 178.128 94.664 176.712 94.664ZM195.76 110.324C194.224 110.324 192.868 109.964 191.692 109.244C190.54 108.5 189.64 107.444 188.992 106.076C188.344 104.708 188.02 103.088 188.02 101.216C188.02 99.344 188.344 97.736 188.992 96.392C189.64 95.024 190.54 93.968 191.692 93.224C192.844 92.48 194.2 92.108 195.76 92.108C197.08 92.108 198.256 92.396 199.288 92.972C200.32 93.548 201.088 94.328 201.592 95.312V84.62H205.228V110H201.664V106.94C201.16 107.996 200.38 108.824 199.324 109.424C198.292 110.024 197.104 110.324 195.76 110.324ZM196.696 107.516C198.184 107.516 199.384 106.976 200.296 105.896C201.208 104.816 201.664 103.256 201.664 101.216C201.664 99.176 201.208 97.628 200.296 96.572C199.384 95.492 198.184 94.952 196.696 94.952C195.184 94.952 193.972 95.492 193.06 96.572C192.148 97.628 191.692 99.176 191.692 101.216C191.692 103.256 192.148 104.816 193.06 105.896C193.972 106.976 195.184 107.516 196.696 107.516Z" fill="#1F3B22"/>
</svg>
