<svg width="309" height="123" viewBox="0 0 309 123" fill="none" xmlns="http://www.w3.org/2000/svg">
<path d="M14.583 23.9583V29.1667M14.583 23.9583V11.4583C14.583 10.6295 14.9122 9.83468 15.4983 9.24862C16.0843 8.66257 16.8792 8.33333 17.708 8.33333C18.5368 8.33333 19.3317 8.66257 19.9177 9.24862C20.5038 9.83468 20.833 10.6295 20.833 11.4583M14.583 23.9583C14.583 23.1295 14.2538 22.3347 13.6677 21.7486C13.0817 21.1626 12.2868 20.8333 11.458 20.8333C10.6292 20.8333 9.83435 21.1626 9.2483 21.7486C8.66225 22.3347 8.33301 23.1295 8.33301 23.9583V28.125C8.33301 32.269 9.97921 36.2433 12.9095 39.1735C15.8397 42.1038 19.814 43.75 23.958 43.75C28.102 43.75 32.0763 42.1038 35.0066 39.1735C37.9368 36.2433 39.583 32.269 39.583 28.125V17.7083C39.583 16.8795 39.2538 16.0847 38.6677 15.4986C38.0817 14.9126 37.2868 14.5833 36.458 14.5833C35.6292 14.5833 34.8344 14.9126 34.2483 15.4986C33.6622 16.0847 33.333 16.8795 33.333 17.7083M20.833 11.4583V22.9167M20.833 11.4583V9.375C20.833 8.5462 21.1622 7.75134 21.7483 7.16529C22.3343 6.57924 23.1292 6.25 23.958 6.25C24.7868 6.25 25.5817 6.57924 26.1677 7.16529C26.7538 7.75134 27.083 8.5462 27.083 9.375V11.4583M33.333 17.7083V11.4583C33.333 10.6295 33.0038 9.83468 32.4177 9.24862C31.8317 8.66257 31.0368 8.33333 30.208 8.33333C29.3792 8.33333 28.5843 8.66257 27.9983 9.24862C27.4122 9.83468 27.083 10.6295 27.083 11.4583M33.333 17.7083V22.9167M27.083 11.4583V22.9167" stroke="#61B47C" stroke-width="3" stroke-linecap="round" stroke-linejoin="round"/>
<line y1="61.75" x2="309" y2="61.75" stroke="#1F3B22" stroke-width="0.5"/>
<path d="M3.08044 110V84.62H19.2084V87.644H6.82444V95.744H18.4524V98.768H6.82444V110H3.08044ZM28.2509 110.324C27.0269 110.324 25.9349 110.084 24.9749 109.604C24.0149 109.124 23.2469 108.476 22.6709 107.66C22.1189 106.844 21.8429 105.92 21.8429 104.888C21.8429 103.592 22.1669 102.572 22.8149 101.828C23.4869 101.084 24.5789 100.544 26.0909 100.208C27.6269 99.872 29.6909 99.704 32.2829 99.704H33.5069V98.768C33.5069 97.4 33.2189 96.416 32.6429 95.816C32.0669 95.216 31.1189 94.916 29.7989 94.916C28.7909 94.916 27.7829 95.072 26.7749 95.384C25.7669 95.672 24.7349 96.14 23.6789 96.788L22.5629 94.232C23.4749 93.584 24.6149 93.068 25.9829 92.684C27.3509 92.3 28.6589 92.108 29.9069 92.108C32.3069 92.108 34.0829 92.684 35.2349 93.836C36.3869 94.964 36.9629 96.74 36.9629 99.164V110H33.5429V107.084C33.1109 108.092 32.4389 108.884 31.5269 109.46C30.6149 110.036 29.5229 110.324 28.2509 110.324ZM28.9709 107.732C30.2669 107.732 31.3469 107.276 32.2109 106.364C33.0749 105.452 33.5069 104.3 33.5069 102.908V101.936H32.3189C30.5669 101.936 29.1869 102.02 28.1789 102.188C27.1949 102.356 26.4869 102.644 26.0549 103.052C25.6469 103.436 25.4429 103.976 25.4429 104.672C25.4429 105.584 25.7549 106.328 26.3789 106.904C27.0029 107.456 27.8669 107.732 28.9709 107.732ZM42.3668 88.364V84.584H46.6148V88.364H42.3668ZM42.6908 110V92.432H46.3268V110H42.6908ZM52.1648 110V92.432H55.6928V95.564C56.6048 93.476 58.5008 92.312 61.3808 92.072L62.5688 92L62.8208 95.096L60.6248 95.312C57.4328 95.624 55.8368 97.268 55.8368 100.244V110H52.1648ZM66.3144 110V92.432H69.8424V95.348C70.4424 94.292 71.2584 93.488 72.2904 92.936C73.3464 92.384 74.5224 92.108 75.8184 92.108C79.9704 92.108 82.0464 94.46 82.0464 99.164V110H78.4104V99.38C78.4104 97.868 78.1104 96.764 77.5104 96.068C76.9344 95.372 76.0224 95.024 74.7744 95.024C73.3104 95.024 72.1344 95.492 71.2464 96.428C70.3824 97.34 69.9504 98.552 69.9504 100.064V110H66.3144ZM96.0206 110.324C93.1406 110.324 90.8726 109.52 89.2166 107.912C87.5606 106.28 86.7326 104.06 86.7326 101.252C86.7326 99.452 87.0926 97.868 87.8126 96.5C88.5566 95.108 89.5766 94.028 90.8726 93.26C92.1686 92.492 93.6566 92.108 95.3366 92.108C97.7606 92.108 99.6686 92.888 101.061 94.448C102.453 95.984 103.149 98.108 103.149 100.82V102.044H90.2606C90.5246 105.692 92.4566 107.516 96.0566 107.516C97.0646 107.516 98.0486 107.36 99.0086 107.048C99.9926 106.736 100.917 106.22 101.781 105.5L102.861 108.02C102.069 108.74 101.049 109.304 99.8006 109.712C98.5526 110.12 97.2926 110.324 96.0206 110.324ZM95.4806 94.664C93.9686 94.664 92.7686 95.132 91.8806 96.068C90.9926 97.004 90.4526 98.252 90.2606 99.812H100.089C100.017 98.18 99.5846 96.92 98.7926 96.032C98.0006 95.12 96.8966 94.664 95.4806 94.664ZM113.989 110.324C112.549 110.324 111.205 110.144 109.957 109.784C108.709 109.4 107.665 108.872 106.825 108.2L107.869 105.752C108.757 106.376 109.729 106.856 110.785 107.192C111.865 107.528 112.945 107.696 114.025 107.696C115.297 107.696 116.257 107.468 116.905 107.012C117.553 106.556 117.877 105.944 117.877 105.176C117.877 104.552 117.661 104.072 117.229 103.736C116.797 103.376 116.149 103.1 115.285 102.908L111.865 102.224C108.841 101.6 107.329 100.04 107.329 97.544C107.329 95.888 107.989 94.568 109.309 93.584C110.629 92.6 112.357 92.108 114.493 92.108C115.717 92.108 116.881 92.288 117.985 92.648C119.113 93.008 120.049 93.548 120.793 94.268L119.749 96.716C119.029 96.092 118.201 95.612 117.265 95.276C116.329 94.94 115.405 94.772 114.493 94.772C113.245 94.772 112.297 95.012 111.649 95.492C111.001 95.948 110.677 96.572 110.677 97.364C110.677 98.564 111.469 99.332 113.053 99.668L116.473 100.352C118.033 100.664 119.209 101.192 120.001 101.936C120.817 102.68 121.225 103.688 121.225 104.96C121.225 106.64 120.565 107.96 119.245 108.92C117.925 109.856 116.173 110.324 113.989 110.324ZM132.146 110.324C130.706 110.324 129.362 110.144 128.114 109.784C126.866 109.4 125.822 108.872 124.982 108.2L126.026 105.752C126.914 106.376 127.886 106.856 128.942 107.192C130.022 107.528 131.102 107.696 132.182 107.696C133.454 107.696 134.414 107.468 135.062 107.012C135.71 106.556 136.034 105.944 136.034 105.176C136.034 104.552 135.818 104.072 135.386 103.736C134.954 103.376 134.306 103.1 133.442 102.908L130.022 102.224C126.998 101.6 125.486 100.04 125.486 97.544C125.486 95.888 126.146 94.568 127.466 93.584C128.786 92.6 130.514 92.108 132.65 92.108C133.874 92.108 135.038 92.288 136.142 92.648C137.27 93.008 138.206 93.548 138.95 94.268L137.906 96.716C137.186 96.092 136.358 95.612 135.422 95.276C134.486 94.94 133.562 94.772 132.65 94.772C131.402 94.772 130.454 95.012 129.806 95.492C129.158 95.948 128.834 96.572 128.834 97.364C128.834 98.564 129.626 99.332 131.21 99.668L134.63 100.352C136.19 100.664 137.366 101.192 138.158 101.936C138.974 102.68 139.382 103.688 139.382 104.96C139.382 106.64 138.722 107.96 137.402 108.92C136.082 109.856 134.33 110.324 132.146 110.324Z" fill="#1F3B22"/>
</svg>
