<svg width="309" height="123" viewBox="0 0 309 123" fill="none" xmlns="http://www.w3.org/2000/svg">
<path d="M25 13.0271V40.1104M25 13.0271C22.5667 11.4104 19.2625 10.4167 15.625 10.4167C11.9875 10.4167 8.68333 11.4104 6.25 13.0271V40.1104C8.68333 38.4937 11.9875 37.5 15.625 37.5C19.2625 37.5 22.5667 38.4937 25 40.1104M25 13.0271C27.4333 11.4104 30.7375 10.4167 34.375 10.4167C38.0146 10.4167 41.3167 11.4104 43.75 13.0271V40.1104C41.3167 38.4937 38.0146 37.5 34.375 37.5C30.7375 37.5 27.4333 38.4937 25 40.1104" stroke="#61B47C" stroke-width="3" stroke-linecap="round" stroke-linejoin="round"/>
<line y1="61.75" x2="309" y2="61.75" stroke="#1F3B22" stroke-width="0.5"/>
<path d="M3.19903 110V84.62H13.711C16.447 84.62 18.559 85.304 20.047 86.672C21.535 88.016 22.279 89.912 22.279 92.36C22.279 94.832 21.535 96.752 20.047 98.12C18.559 99.464 16.447 100.136 13.711 100.136H6.94303V110H3.19903ZM6.94303 97.148H13.171C16.819 97.148 18.643 95.552 18.643 92.36C18.643 89.192 16.819 87.608 13.171 87.608H6.94303V97.148ZM32.3447 110.324C30.4247 110.324 28.9847 109.784 28.0247 108.704C27.0887 107.624 26.6207 106.04 26.6207 103.952V84.62H30.2567V103.736C30.2567 106.112 31.2287 107.3 33.1727 107.3C33.4607 107.3 33.7247 107.288 33.9647 107.264C34.2287 107.24 34.4927 107.192 34.7567 107.12L34.6847 110.036C33.8687 110.228 33.0887 110.324 32.3447 110.324ZM43.9606 110.324C42.7366 110.324 41.6446 110.084 40.6846 109.604C39.7246 109.124 38.9566 108.476 38.3806 107.66C37.8286 106.844 37.5526 105.92 37.5526 104.888C37.5526 103.592 37.8766 102.572 38.5246 101.828C39.1966 101.084 40.2886 100.544 41.8006 100.208C43.3366 99.872 45.4006 99.704 47.9926 99.704H49.2166V98.768C49.2166 97.4 48.9286 96.416 48.3526 95.816C47.7766 95.216 46.8286 94.916 45.5086 94.916C44.5006 94.916 43.4926 95.072 42.4846 95.384C41.4766 95.672 40.4446 96.14 39.3886 96.788L38.2726 94.232C39.1846 93.584 40.3246 93.068 41.6926 92.684C43.0606 92.3 44.3686 92.108 45.6166 92.108C48.0166 92.108 49.7926 92.684 50.9446 93.836C52.0966 94.964 52.6726 96.74 52.6726 99.164V110H49.2526V107.084C48.8206 108.092 48.1486 108.884 47.2366 109.46C46.3246 110.036 45.2326 110.324 43.9606 110.324ZM44.6806 107.732C45.9766 107.732 47.0566 107.276 47.9206 106.364C48.7846 105.452 49.2166 104.3 49.2166 102.908V101.936H48.0286C46.2766 101.936 44.8966 102.02 43.8886 102.188C42.9046 102.356 42.1966 102.644 41.7646 103.052C41.3566 103.436 41.1526 103.976 41.1526 104.672C41.1526 105.584 41.4646 106.328 42.0886 106.904C42.7126 107.456 43.5766 107.732 44.6806 107.732ZM58.4005 110V92.432H61.9285V95.348C62.5285 94.292 63.3445 93.488 64.3765 92.936C65.4325 92.384 66.6085 92.108 67.9045 92.108C72.0565 92.108 74.1325 94.46 74.1325 99.164V110H70.4965V99.38C70.4965 97.868 70.1965 96.764 69.5965 96.068C69.0205 95.372 68.1085 95.024 66.8605 95.024C65.3965 95.024 64.2205 95.492 63.3325 96.428C62.4685 97.34 62.0365 98.552 62.0365 100.064V110H58.4005ZM79.8627 110V92.432H83.3907V95.348C83.9907 94.292 84.8067 93.488 85.8387 92.936C86.8947 92.384 88.0707 92.108 89.3667 92.108C93.5187 92.108 95.5947 94.46 95.5947 99.164V110H91.9587V99.38C91.9587 97.868 91.6587 96.764 91.0587 96.068C90.4827 95.372 89.5707 95.024 88.3227 95.024C86.8587 95.024 85.6827 95.492 84.7947 96.428C83.9307 97.34 83.4987 98.552 83.4987 100.064V110H79.8627ZM109.569 110.324C106.689 110.324 104.421 109.52 102.765 107.912C101.109 106.28 100.281 104.06 100.281 101.252C100.281 99.452 100.641 97.868 101.361 96.5C102.105 95.108 103.125 94.028 104.421 93.26C105.717 92.492 107.205 92.108 108.885 92.108C111.309 92.108 113.217 92.888 114.609 94.448C116.001 95.984 116.697 98.108 116.697 100.82V102.044H103.809C104.073 105.692 106.005 107.516 109.605 107.516C110.613 107.516 111.597 107.36 112.557 107.048C113.541 106.736 114.465 106.22 115.329 105.5L116.409 108.02C115.617 108.74 114.597 109.304 113.349 109.712C112.101 110.12 110.841 110.324 109.569 110.324ZM109.029 94.664C107.517 94.664 106.317 95.132 105.429 96.068C104.541 97.004 104.001 98.252 103.809 99.812H113.637C113.565 98.18 113.133 96.92 112.341 96.032C111.549 95.12 110.445 94.664 109.029 94.664ZM128.077 110.324C126.541 110.324 125.185 109.964 124.009 109.244C122.857 108.5 121.957 107.444 121.309 106.076C120.661 104.708 120.337 103.088 120.337 101.216C120.337 99.344 120.661 97.736 121.309 96.392C121.957 95.024 122.857 93.968 124.009 93.224C125.161 92.48 126.517 92.108 128.077 92.108C129.397 92.108 130.573 92.396 131.605 92.972C132.637 93.548 133.405 94.328 133.909 95.312V84.62H137.545V110H133.981V106.94C133.477 107.996 132.697 108.824 131.641 109.424C130.609 110.024 129.421 110.324 128.077 110.324ZM129.013 107.516C130.501 107.516 131.701 106.976 132.613 105.896C133.525 104.816 133.981 103.256 133.981 101.216C133.981 99.176 133.525 97.628 132.613 96.572C131.701 95.492 130.501 94.952 129.013 94.952C127.501 94.952 126.289 95.492 125.377 96.572C124.465 97.628 124.009 99.176 124.009 101.216C124.009 103.256 124.465 104.816 125.377 105.896C126.289 106.976 127.501 107.516 129.013 107.516ZM161.035 110.324C158.827 110.324 157.183 109.76 156.103 108.632C155.023 107.504 154.483 105.872 154.483 103.736V95.24H151.063V92.432H154.483V87.14H158.119V92.432H163.555V95.24H158.119V103.448C158.119 104.72 158.383 105.68 158.911 106.328C159.463 106.976 160.351 107.3 161.575 107.3C161.959 107.3 162.331 107.264 162.691 107.192C163.051 107.096 163.411 106.988 163.771 106.868L164.347 109.604C163.987 109.82 163.483 109.988 162.835 110.108C162.211 110.252 161.611 110.324 161.035 110.324ZM167.416 110V92.432H170.944V95.564C171.856 93.476 173.752 92.312 176.632 92.072L177.82 92L178.072 95.096L175.876 95.312C172.684 95.624 171.088 97.268 171.088 100.244V110H167.416ZM181.242 88.364V84.584H185.49V88.364H181.242ZM181.566 110V92.432H185.202V110H181.566ZM191.039 116.48V92.432H194.603V95.42C195.107 94.412 195.875 93.608 196.907 93.008C197.939 92.408 199.127 92.108 200.471 92.108C202.031 92.108 203.387 92.48 204.539 93.224C205.715 93.968 206.615 95.024 207.239 96.392C207.887 97.736 208.211 99.344 208.211 101.216C208.211 103.088 207.887 104.708 207.239 106.076C206.615 107.444 205.715 108.5 204.539 109.244C203.387 109.964 202.031 110.324 200.471 110.324C199.175 110.324 198.011 110.048 196.979 109.496C195.971 108.92 195.203 108.14 194.675 107.156V116.48H191.039ZM199.571 107.516C201.083 107.516 202.283 106.976 203.171 105.896C204.083 104.816 204.539 103.256 204.539 101.216C204.539 99.176 204.083 97.628 203.171 96.572C202.283 95.492 201.083 94.952 199.571 94.952C198.059 94.952 196.847 95.492 195.935 96.572C195.047 97.628 194.603 99.176 194.603 101.216C194.603 103.256 195.047 104.816 195.935 105.896C196.847 106.976 198.059 107.516 199.571 107.516Z" fill="#1F3B22"/>
</svg>
