<svg width="309" height="123" viewBox="0 0 309 123" fill="none" xmlns="http://www.w3.org/2000/svg">
<path d="M25 6.25V8.33333M25 41.6667V43.75M43.75 25H41.6667M8.33333 25H6.25M38.2583 38.2583L36.7854 36.7854M13.2146 13.2146L11.7417 11.7417M38.2583 11.7417L36.7854 13.2146M13.2146 36.7854L11.7417 38.2583M33.3333 25C33.3333 27.2101 32.4554 29.3298 30.8926 30.8926C29.3298 32.4554 27.2101 33.3333 25 33.3333C22.7899 33.3333 20.6702 32.4554 19.1074 30.8926C17.5446 29.3298 16.6667 27.2101 16.6667 25C16.6667 22.7899 17.5446 20.6702 19.1074 19.1074C20.6702 17.5446 22.7899 16.6667 25 16.6667C27.2101 16.6667 29.3298 17.5446 30.8926 19.1074C32.4554 20.6702 33.3333 22.7899 33.3333 25Z" stroke="#1F3B22" stroke-width="3" stroke-linecap="round" stroke-linejoin="round"/>
<path d="M30.8929 30.8926C32.4557 29.3298 33.3337 27.2102 33.3337 25C33.3337 22.7899 32.4557 20.6703 30.8929 19.1075C29.3301 17.5447 27.2105 16.6667 25.0003 16.6667C22.7902 16.6667 20.6706 17.5447 19.1078 19.1075C17.545 20.6703 16.667 22.7899 16.667 25C16.667 27.2102 17.545 29.3298 19.1078 30.8926C20.6706 32.4554 22.7902 33.3334 25.0003 33.3334C27.2105 33.3334 29.3301 32.4554 30.8929 30.8926Z" stroke="#61B47C" stroke-width="3" stroke-linecap="round" stroke-linejoin="round"/>
<line y1="61.75" x2="309" y2="61.75" stroke="#1F3B22" stroke-width="0.5"/>
<path d="M3.30068 110V84.62H13.8127C16.5487 84.62 18.6607 85.304 20.1487 86.672C21.6367 88.016 22.3807 89.912 22.3807 92.36C22.3807 94.832 21.6367 96.752 20.1487 98.12C18.6607 99.464 16.5487 100.136 13.8127 100.136H7.04468V110H3.30068ZM7.04468 97.148H13.2727C16.9207 97.148 18.7447 95.552 18.7447 92.36C18.7447 89.192 16.9207 87.608 13.2727 87.608H7.04468V97.148ZM33.4754 110.324C31.6994 110.324 30.1634 109.952 28.8674 109.208C27.5714 108.464 26.5634 107.42 25.8434 106.076C25.1474 104.708 24.7994 103.088 24.7994 101.216C24.7994 99.344 25.1474 97.736 25.8434 96.392C26.5634 95.024 27.5714 93.968 28.8674 93.224C30.1634 92.48 31.6994 92.108 33.4754 92.108C35.2034 92.108 36.7154 92.48 38.0114 93.224C39.3074 93.968 40.3154 95.024 41.0354 96.392C41.7554 97.736 42.1154 99.344 42.1154 101.216C42.1154 103.088 41.7554 104.708 41.0354 106.076C40.3154 107.42 39.3074 108.464 38.0114 109.208C36.7154 109.952 35.2034 110.324 33.4754 110.324ZM33.4754 107.516C34.9634 107.516 36.1634 106.976 37.0754 105.896C37.9874 104.816 38.4434 103.256 38.4434 101.216C38.4434 99.176 37.9874 97.628 37.0754 96.572C36.1634 95.492 34.9634 94.952 33.4754 94.952C31.9634 94.952 30.7514 95.492 29.8394 96.572C28.9274 97.628 28.4714 99.176 28.4714 101.216C28.4714 103.256 28.9274 104.816 29.8394 105.896C30.7514 106.976 31.9634 107.516 33.4754 107.516ZM53.0749 110.324C51.6349 110.324 50.2909 110.144 49.0429 109.784C47.7949 109.4 46.7509 108.872 45.9109 108.2L46.9549 105.752C47.8429 106.376 48.8149 106.856 49.8709 107.192C50.9509 107.528 52.0309 107.696 53.1109 107.696C54.3829 107.696 55.3429 107.468 55.9909 107.012C56.6389 106.556 56.9629 105.944 56.9629 105.176C56.9629 104.552 56.7469 104.072 56.3149 103.736C55.8829 103.376 55.2349 103.1 54.3709 102.908L50.9509 102.224C47.9269 101.6 46.4149 100.04 46.4149 97.544C46.4149 95.888 47.0749 94.568 48.3949 93.584C49.7149 92.6 51.4429 92.108 53.5789 92.108C54.8029 92.108 55.9669 92.288 57.0709 92.648C58.1989 93.008 59.1349 93.548 59.8789 94.268L58.8349 96.716C58.1149 96.092 57.2869 95.612 56.3509 95.276C55.4149 94.94 54.4909 94.772 53.5789 94.772C52.3309 94.772 51.3829 95.012 50.7349 95.492C50.0869 95.948 49.7629 96.572 49.7629 97.364C49.7629 98.564 50.5549 99.332 52.1389 99.668L55.5589 100.352C57.1189 100.664 58.2949 101.192 59.0869 101.936C59.9029 102.68 60.3109 103.688 60.3109 104.96C60.3109 106.64 59.6509 107.96 58.3309 108.92C57.0109 109.856 55.2589 110.324 53.0749 110.324ZM64.7524 88.364V84.584H69.0004V88.364H64.7524ZM65.0764 110V92.432H68.7124V110H65.0764ZM82.0383 110.324C79.8303 110.324 78.1863 109.76 77.1063 108.632C76.0263 107.504 75.4863 105.872 75.4863 103.736V95.24H72.0663V92.432H75.4863V87.14H79.1223V92.432H84.5583V95.24H79.1223V103.448C79.1223 104.72 79.3863 105.68 79.9143 106.328C80.4663 106.976 81.3543 107.3 82.5783 107.3C82.9623 107.3 83.3343 107.264 83.6943 107.192C84.0543 107.096 84.4143 106.988 84.7743 106.868L85.3503 109.604C84.9903 109.82 84.4863 109.988 83.8383 110.108C83.2143 110.252 82.6143 110.324 82.0383 110.324ZM88.0947 88.364V84.584H92.3427V88.364H88.0947ZM88.4187 110V92.432H92.0547V110H88.4187ZM103.041 110L95.4806 92.432H99.4046L104.769 105.788L110.277 92.432H113.985L106.317 110H103.041ZM125.243 110.324C122.363 110.324 120.095 109.52 118.439 107.912C116.783 106.28 115.955 104.06 115.955 101.252C115.955 99.452 116.315 97.868 117.035 96.5C117.779 95.108 118.799 94.028 120.095 93.26C121.391 92.492 122.879 92.108 124.559 92.108C126.983 92.108 128.891 92.888 130.283 94.448C131.675 95.984 132.371 98.108 132.371 100.82V102.044H119.483C119.747 105.692 121.679 107.516 125.279 107.516C126.287 107.516 127.271 107.36 128.231 107.048C129.215 106.736 130.139 106.22 131.003 105.5L132.083 108.02C131.291 108.74 130.271 109.304 129.023 109.712C127.775 110.12 126.515 110.324 125.243 110.324ZM124.703 94.664C123.191 94.664 121.991 95.132 121.103 96.068C120.215 97.004 119.675 98.252 119.483 99.812H129.311C129.239 98.18 128.807 96.92 128.015 96.032C127.223 95.12 126.119 94.664 124.703 94.664ZM147.628 110V84.62H151.372V110H147.628ZM157.622 110V92.432H161.15V95.276C161.678 94.268 162.41 93.488 163.346 92.936C164.282 92.384 165.374 92.108 166.622 92.108C169.31 92.108 171.05 93.284 171.842 95.636C172.394 94.532 173.186 93.668 174.218 93.044C175.25 92.42 176.426 92.108 177.746 92.108C181.682 92.108 183.65 94.46 183.65 99.164V110H180.014V99.344C180.014 97.856 179.75 96.764 179.222 96.068C178.718 95.372 177.878 95.024 176.702 95.024C175.382 95.024 174.338 95.492 173.57 96.428C172.802 97.34 172.418 98.588 172.418 100.172V110H168.782V99.344C168.782 97.856 168.53 96.764 168.026 96.068C167.522 95.372 166.682 95.024 165.506 95.024C164.186 95.024 163.142 95.492 162.374 96.428C161.63 97.34 161.258 98.588 161.258 100.172V110H157.622ZM189.454 116.48V92.432H193.018V95.42C193.522 94.412 194.29 93.608 195.322 93.008C196.354 92.408 197.542 92.108 198.886 92.108C200.446 92.108 201.802 92.48 202.954 93.224C204.13 93.968 205.03 95.024 205.654 96.392C206.302 97.736 206.626 99.344 206.626 101.216C206.626 103.088 206.302 104.708 205.654 106.076C205.03 107.444 204.13 108.5 202.954 109.244C201.802 109.964 200.446 110.324 198.886 110.324C197.59 110.324 196.426 110.048 195.394 109.496C194.386 108.92 193.618 108.14 193.09 107.156V116.48H189.454ZM197.986 107.516C199.498 107.516 200.698 106.976 201.586 105.896C202.498 104.816 202.954 103.256 202.954 101.216C202.954 99.176 202.498 97.628 201.586 96.572C200.698 95.492 199.498 94.952 197.986 94.952C196.474 94.952 195.262 95.492 194.35 96.572C193.462 97.628 193.018 99.176 193.018 101.216C193.018 103.256 193.462 104.816 194.35 105.896C195.262 106.976 196.474 107.516 197.986 107.516ZM217.059 110.324C215.835 110.324 214.743 110.084 213.783 109.604C212.823 109.124 212.055 108.476 211.479 107.66C210.927 106.844 210.651 105.92 210.651 104.888C210.651 103.592 210.975 102.572 211.623 101.828C212.295 101.084 213.387 100.544 214.899 100.208C216.435 99.872 218.499 99.704 221.091 99.704H222.315V98.768C222.315 97.4 222.027 96.416 221.451 95.816C220.875 95.216 219.927 94.916 218.607 94.916C217.599 94.916 216.591 95.072 215.583 95.384C214.575 95.672 213.543 96.14 212.487 96.788L211.371 94.232C212.283 93.584 213.423 93.068 214.791 92.684C216.159 92.3 217.467 92.108 218.715 92.108C221.115 92.108 222.891 92.684 224.043 93.836C225.195 94.964 225.771 96.74 225.771 99.164V110H222.351V107.084C221.919 108.092 221.247 108.884 220.335 109.46C219.423 110.036 218.331 110.324 217.059 110.324ZM217.779 107.732C219.075 107.732 220.155 107.276 221.019 106.364C221.883 105.452 222.315 104.3 222.315 102.908V101.936H221.127C219.375 101.936 217.995 102.02 216.987 102.188C216.003 102.356 215.295 102.644 214.863 103.052C214.455 103.436 214.251 103.976 214.251 104.672C214.251 105.584 214.563 106.328 215.187 106.904C215.811 107.456 216.675 107.732 217.779 107.732ZM239.239 110.324C237.439 110.324 235.879 109.952 234.559 109.208C233.263 108.44 232.255 107.372 231.535 106.004C230.815 104.612 230.455 102.98 230.455 101.108C230.455 98.324 231.247 96.128 232.831 94.52C234.415 92.912 236.551 92.108 239.239 92.108C240.343 92.108 241.435 92.3 242.515 92.684C243.595 93.068 244.483 93.596 245.179 94.268L244.027 96.824C243.355 96.2 242.611 95.744 241.795 95.456C241.003 95.144 240.247 94.988 239.527 94.988C237.823 94.988 236.503 95.528 235.567 96.608C234.655 97.664 234.199 99.176 234.199 101.144C234.199 103.112 234.655 104.66 235.567 105.788C236.503 106.892 237.823 107.444 239.527 107.444C240.247 107.444 241.003 107.3 241.795 107.012C242.611 106.7 243.355 106.232 244.027 105.608L245.179 108.2C244.483 108.848 243.583 109.364 242.479 109.748C241.399 110.132 240.319 110.324 239.239 110.324ZM256.547 110.324C254.339 110.324 252.695 109.76 251.615 108.632C250.535 107.504 249.995 105.872 249.995 103.736V95.24H246.575V92.432H249.995V87.14H253.631V92.432H259.067V95.24H253.631V103.448C253.631 104.72 253.895 105.68 254.423 106.328C254.975 106.976 255.863 107.3 257.087 107.3C257.471 107.3 257.843 107.264 258.203 107.192C258.563 107.096 258.923 106.988 259.283 106.868L259.859 109.604C259.499 109.82 258.995 109.988 258.347 110.108C257.723 110.252 257.123 110.324 256.547 110.324Z" fill="#1F3B22"/>
</svg>
