<svg width="309" height="123" viewBox="0 0 309 123" fill="none" xmlns="http://www.w3.org/2000/svg">
<path d="M10.4167 6.25V14.5833V6.25ZM6.25 10.4167H14.5833H6.25ZM12.5 35.4167V43.75V35.4167ZM8.33333 39.5833H16.6667H8.33333ZM27.0833 6.25L31.8458 20.5354L43.75 25L31.8458 29.4646L27.0833 43.75L22.3208 29.4646L10.4167 25L22.3208 20.5354L27.0833 6.25Z" stroke="#1F3B22" stroke-width="3" stroke-linecap="round" stroke-linejoin="round"/>
<path d="M27.0837 6.25L31.8462 20.5354L43.7503 25L31.8462 29.4646L27.0837 43.75L22.3212 29.4646L10.417 25L22.3212 20.5354L27.0837 6.25Z" stroke="#61B47C" stroke-width="3" stroke-linecap="round" stroke-linejoin="round"/>
<line y1="61.75" x2="309" y2="61.75" stroke="#1F3B22" stroke-width="0.5"/>
<path d="M13.5365 110.324C10.1525 110.324 7.56053 109.436 5.76053 107.66C3.98453 105.86 3.09653 103.232 3.09653 99.776V84.62H6.84053V99.704C6.84053 104.624 9.07253 107.084 13.5365 107.084C18.0005 107.084 20.2325 104.624 20.2325 99.704V84.62H23.9045V99.776C23.9045 103.232 23.0285 105.86 21.2765 107.66C19.5245 109.436 16.9445 110.324 13.5365 110.324ZM30.0029 110V92.432H33.5309V95.348C34.1309 94.292 34.9469 93.488 35.9789 92.936C37.0349 92.384 38.2109 92.108 39.5069 92.108C43.6589 92.108 45.7349 94.46 45.7349 99.164V110H42.0989V99.38C42.0989 97.868 41.7989 96.764 41.1989 96.068C40.6229 95.372 39.7109 95.024 38.4629 95.024C36.9989 95.024 35.8229 95.492 34.9349 96.428C34.0709 97.34 33.6389 98.552 33.6389 100.064V110H30.0029ZM52.5091 110V95.24H49.0891V92.432H52.5091V92.108C52.5091 89.684 53.1211 87.86 54.3451 86.636C55.5931 85.412 57.5011 84.728 60.0691 84.584L61.6531 84.476L61.9051 87.212L60.2491 87.32C58.7851 87.416 57.7291 87.812 57.0811 88.508C56.4571 89.204 56.1451 90.236 56.1451 91.604V92.432H61.0771V95.24H56.1451V110H52.5091ZM71.8053 110.324C70.0293 110.324 68.4933 109.952 67.1973 109.208C65.9013 108.464 64.8933 107.42 64.1733 106.076C63.4773 104.708 63.1293 103.088 63.1293 101.216C63.1293 99.344 63.4773 97.736 64.1733 96.392C64.8933 95.024 65.9013 93.968 67.1973 93.224C68.4933 92.48 70.0293 92.108 71.8053 92.108C73.5333 92.108 75.0453 92.48 76.3413 93.224C77.6373 93.968 78.6453 95.024 79.3653 96.392C80.0853 97.736 80.4453 99.344 80.4453 101.216C80.4453 103.088 80.0853 104.708 79.3653 106.076C78.6453 107.42 77.6373 108.464 76.3413 109.208C75.0453 109.952 73.5333 110.324 71.8053 110.324ZM71.8053 107.516C73.2933 107.516 74.4933 106.976 75.4053 105.896C76.3173 104.816 76.7733 103.256 76.7733 101.216C76.7733 99.176 76.3173 97.628 75.4053 96.572C74.4933 95.492 73.2933 94.952 71.8053 94.952C70.2933 94.952 69.0813 95.492 68.1693 96.572C67.2573 97.628 66.8013 99.176 66.8013 101.216C66.8013 103.256 67.2573 104.816 68.1693 105.896C69.0813 106.976 70.2933 107.516 71.8053 107.516ZM85.2488 110V92.432H88.7768V95.564C89.6888 93.476 91.5848 92.312 94.4648 92.072L95.6528 92L95.9048 95.096L93.7088 95.312C90.5168 95.624 88.9208 97.268 88.9208 100.244V110H85.2488ZM107.108 116.804C105.524 116.804 104.048 116.612 102.68 116.228C101.312 115.868 100.1 115.292 99.0444 114.5L100.16 111.908C101.216 112.628 102.296 113.156 103.4 113.492C104.504 113.828 105.656 113.996 106.856 113.996C110.216 113.996 111.896 112.316 111.896 108.956V106.184C111.392 107.24 110.6 108.068 109.52 108.668C108.464 109.268 107.276 109.568 105.956 109.568C104.372 109.568 102.992 109.208 101.816 108.488C100.64 107.744 99.7284 106.724 99.0804 105.428C98.4324 104.108 98.1084 102.572 98.1084 100.82C98.1084 99.092 98.4324 97.58 99.0804 96.284C99.7284 94.964 100.64 93.944 101.816 93.224C102.992 92.48 104.372 92.108 105.956 92.108C107.3 92.108 108.5 92.408 109.556 93.008C110.612 93.608 111.392 94.436 111.896 95.492V92.432H115.424V108.524C115.424 111.284 114.716 113.348 113.3 114.716C111.884 116.108 109.82 116.804 107.108 116.804ZM106.82 106.724C108.356 106.724 109.58 106.196 110.492 105.14C111.404 104.084 111.86 102.644 111.86 100.82C111.86 98.996 111.404 97.568 110.492 96.536C109.58 95.48 108.356 94.952 106.82 94.952C105.284 94.952 104.06 95.48 103.148 96.536C102.236 97.568 101.78 98.996 101.78 100.82C101.78 102.644 102.236 104.084 103.148 105.14C104.06 106.196 105.284 106.724 106.82 106.724ZM129.491 110.324C126.611 110.324 124.343 109.52 122.687 107.912C121.031 106.28 120.203 104.06 120.203 101.252C120.203 99.452 120.563 97.868 121.283 96.5C122.027 95.108 123.047 94.028 124.343 93.26C125.639 92.492 127.127 92.108 128.807 92.108C131.231 92.108 133.139 92.888 134.531 94.448C135.923 95.984 136.619 98.108 136.619 100.82V102.044H123.731C123.995 105.692 125.927 107.516 129.527 107.516C130.535 107.516 131.519 107.36 132.479 107.048C133.463 106.736 134.387 106.22 135.251 105.5L136.331 108.02C135.539 108.74 134.519 109.304 133.271 109.712C132.023 110.12 130.763 110.324 129.491 110.324ZM128.951 94.664C127.439 94.664 126.239 95.132 125.351 96.068C124.463 97.004 123.923 98.252 123.731 99.812H133.559C133.487 98.18 133.055 96.92 132.263 96.032C131.471 95.12 130.367 94.664 128.951 94.664ZM148.756 110.324C146.548 110.324 144.904 109.76 143.824 108.632C142.744 107.504 142.204 105.872 142.204 103.736V95.24H138.784V92.432H142.204V87.14H145.84V92.432H151.276V95.24H145.84V103.448C145.84 104.72 146.104 105.68 146.632 106.328C147.184 106.976 148.072 107.3 149.296 107.3C149.68 107.3 150.052 107.264 150.412 107.192C150.772 107.096 151.132 106.988 151.492 106.868L152.068 109.604C151.708 109.82 151.204 109.988 150.556 110.108C149.932 110.252 149.332 110.324 148.756 110.324ZM161.922 110.324C159.714 110.324 158.07 109.76 156.99 108.632C155.91 107.504 155.37 105.872 155.37 103.736V95.24H151.95V92.432H155.37V87.14H159.006V92.432H164.442V95.24H159.006V103.448C159.006 104.72 159.27 105.68 159.798 106.328C160.35 106.976 161.238 107.3 162.462 107.3C162.846 107.3 163.218 107.264 163.578 107.192C163.938 107.096 164.298 106.988 164.658 106.868L165.234 109.604C164.874 109.82 164.37 109.988 163.722 110.108C163.098 110.252 162.498 110.324 161.922 110.324ZM173.918 110.324C172.694 110.324 171.602 110.084 170.642 109.604C169.682 109.124 168.914 108.476 168.338 107.66C167.786 106.844 167.51 105.92 167.51 104.888C167.51 103.592 167.834 102.572 168.482 101.828C169.154 101.084 170.246 100.544 171.758 100.208C173.294 99.872 175.358 99.704 177.95 99.704H179.174V98.768C179.174 97.4 178.886 96.416 178.31 95.816C177.734 95.216 176.786 94.916 175.466 94.916C174.458 94.916 173.45 95.072 172.442 95.384C171.434 95.672 170.402 96.14 169.346 96.788L168.23 94.232C169.142 93.584 170.282 93.068 171.65 92.684C173.018 92.3 174.326 92.108 175.574 92.108C177.974 92.108 179.75 92.684 180.902 93.836C182.054 94.964 182.63 96.74 182.63 99.164V110H179.21V107.084C178.778 108.092 178.106 108.884 177.194 109.46C176.282 110.036 175.19 110.324 173.918 110.324ZM174.638 107.732C175.934 107.732 177.014 107.276 177.878 106.364C178.742 105.452 179.174 104.3 179.174 102.908V101.936H177.986C176.234 101.936 174.854 102.02 173.846 102.188C172.862 102.356 172.154 102.644 171.722 103.052C171.314 103.436 171.11 103.976 171.11 104.672C171.11 105.584 171.422 106.328 172.046 106.904C172.67 107.456 173.534 107.732 174.638 107.732ZM197.79 110.324C196.446 110.324 195.258 110.024 194.226 109.424C193.194 108.824 192.426 108.02 191.922 107.012V110H188.358V84.62H191.994V95.276C192.522 94.316 193.29 93.548 194.298 92.972C195.33 92.396 196.494 92.108 197.79 92.108C199.35 92.108 200.706 92.48 201.858 93.224C203.034 93.968 203.934 95.024 204.558 96.392C205.206 97.736 205.53 99.344 205.53 101.216C205.53 103.088 205.206 104.708 204.558 106.076C203.934 107.444 203.034 108.5 201.858 109.244C200.706 109.964 199.35 110.324 197.79 110.324ZM196.89 107.516C198.402 107.516 199.602 106.976 200.49 105.896C201.402 104.816 201.858 103.256 201.858 101.216C201.858 99.176 201.402 97.628 200.49 96.572C199.602 95.492 198.402 94.952 196.89 94.952C195.378 94.952 194.166 95.492 193.254 96.572C192.366 97.628 191.922 99.176 191.922 101.216C191.922 103.256 192.366 104.816 193.254 105.896C194.166 106.976 195.378 107.516 196.89 107.516ZM216.071 110.324C214.151 110.324 212.711 109.784 211.751 108.704C210.815 107.624 210.347 106.04 210.347 103.952V84.62H213.983V103.736C213.983 106.112 214.955 107.3 216.899 107.3C217.187 107.3 217.451 107.288 217.691 107.264C217.955 107.24 218.219 107.192 218.483 107.12L218.411 110.036C217.595 110.228 216.815 110.324 216.071 110.324ZM230.14 110.324C227.26 110.324 224.992 109.52 223.336 107.912C221.68 106.28 220.852 104.06 220.852 101.252C220.852 99.452 221.212 97.868 221.932 96.5C222.676 95.108 223.696 94.028 224.992 93.26C226.288 92.492 227.776 92.108 229.456 92.108C231.88 92.108 233.788 92.888 235.18 94.448C236.572 95.984 237.268 98.108 237.268 100.82V102.044H224.38C224.644 105.692 226.576 107.516 230.176 107.516C231.184 107.516 232.168 107.36 233.128 107.048C234.112 106.736 235.036 106.22 235.9 105.5L236.98 108.02C236.188 108.74 235.168 109.304 233.92 109.712C232.672 110.12 231.412 110.324 230.14 110.324ZM229.6 94.664C228.088 94.664 226.888 95.132 226 96.068C225.112 97.004 224.572 98.252 224.38 99.812H234.208C234.136 98.18 233.704 96.92 232.912 96.032C232.12 95.12 231.016 94.664 229.6 94.664Z" fill="#1F3B22"/>
</svg>
