<svg width="379" height="211" viewBox="0 0 379 211" fill="none" xmlns="http://www.w3.org/2000/svg">
<path d="M135 206C156.824 196.344 228.377 179.371 340 188.722" stroke="#61B47C" stroke-width="9"/>
<path d="M13.552 50L0 10.8H6.776L16.072 39.304L24.864 10.8H29.624L38.416 39.304L47.712 10.8H54.488L40.936 50H36.288L27.272 22.056L18.2 50H13.552ZM74.1248 23.232C80.4714 23.232 83.6448 26.6853 83.6448 33.592V50H77.5408V36.392C77.5408 33.5547 77.1114 31.52 76.2527 30.288C75.3941 29.056 73.9194 28.44 71.8288 28.44C69.8501 28.44 68.3194 29.0747 67.2367 30.344C66.1541 31.576 65.6127 33.3493 65.6127 35.664V50H59.5087V10.8H65.6127V27.544C67.2927 24.6693 70.1301 23.232 74.1248 23.232ZM110.099 23.904H116.203V50.112C116.203 54.1067 115.065 57.2053 112.787 59.408C110.585 61.424 107.635 62.432 103.939 62.432C100.094 62.432 97.1075 61.536 94.9795 59.744C93.1128 58.1013 92.1422 55.8427 92.0675 52.968H98.2275C98.3768 54.4613 98.8622 55.5627 99.6835 56.272C100.542 57.0187 101.923 57.392 103.827 57.392C105.769 57.392 107.299 56.7573 108.419 55.488C109.539 54.256 110.099 52.3147 110.099 49.664V46.36C108.419 49.2347 105.619 50.672 101.699 50.672C98.6008 50.672 96.2115 49.6827 94.5315 47.704C92.8888 45.688 92.0675 43.056 92.0675 39.808V23.904H98.1715V38.52C98.1715 43.0373 100.057 45.296 103.827 45.296C105.881 45.296 107.43 44.568 108.475 43.112C109.558 41.656 110.099 39.752 110.099 37.4V23.904ZM158.058 23.904H164.162V50.112C164.162 54.1067 163.024 57.2053 160.746 59.408C158.544 61.424 155.594 62.432 151.898 62.432C148.053 62.432 145.066 61.536 142.938 59.744C141.072 58.1013 140.101 55.8427 140.026 52.968H146.186C146.336 54.4613 146.821 55.5627 147.642 56.272C148.501 57.0187 149.882 57.392 151.786 57.392C153.728 57.392 155.258 56.7573 156.378 55.488C157.498 54.256 158.058 52.3147 158.058 49.664V46.36C156.378 49.2347 153.578 50.672 149.658 50.672C146.56 50.672 144.17 49.6827 142.49 47.704C140.848 45.688 140.026 43.056 140.026 39.808V23.904H146.13V38.52C146.13 43.0373 148.016 45.296 151.786 45.296C153.84 45.296 155.389 44.568 156.434 43.112C157.517 41.656 158.058 39.752 158.058 37.4V23.904ZM194.985 46.808C192.521 49.384 189.18 50.672 184.961 50.672C180.742 50.672 177.382 49.384 174.881 46.808C172.417 44.1947 171.185 40.9093 171.185 36.952C171.185 32.9947 172.417 29.728 174.881 27.152C177.382 24.5387 180.742 23.232 184.961 23.232C189.18 23.232 192.521 24.5387 194.985 27.152C197.486 29.728 198.737 32.9947 198.737 36.952C198.737 40.9093 197.486 44.1947 194.985 46.808ZM179.305 42.944C180.686 44.4747 182.572 45.24 184.961 45.24C187.35 45.24 189.217 44.4747 190.561 42.944C191.942 41.4133 192.633 39.416 192.633 36.952C192.633 34.488 191.942 32.4907 190.561 30.96C189.217 29.4293 187.35 28.664 184.961 28.664C182.572 28.664 180.686 29.4293 179.305 30.96C177.961 32.4907 177.289 34.488 177.289 36.952C177.289 39.416 177.961 41.4133 179.305 42.944ZM215.118 50.672C212.169 50.672 209.817 49.7947 208.062 48.04C206.308 46.2853 205.43 43.7093 205.43 40.312V23.904H211.534V38.8C211.534 41.0027 211.945 42.664 212.766 43.784C213.588 44.904 214.95 45.464 216.854 45.464C219.057 45.464 220.662 44.848 221.67 43.616C222.678 42.3467 223.182 40.6853 223.182 38.632V23.904H229.286V50H223.182V46.36C221.577 49.2347 218.889 50.672 215.118 50.672ZM13.048 114.672C9.76267 114.672 7.09333 113.832 5.04 112.152C2.98667 110.472 1.96 108.419 1.96 105.992H8.064C8.064 107.112 8.54933 108.027 9.52 108.736C10.528 109.445 11.816 109.8 13.384 109.8C14.5413 109.8 15.456 109.52 16.128 108.96C16.8 108.4 17.136 107.653 17.136 106.72C17.136 105.227 16.4827 104.312 15.176 103.976L8.456 102.128C4.68533 101.083 2.8 98.6747 2.8 94.904C2.8 92.7387 3.73333 90.928 5.6 89.472C7.46667 87.9787 9.87467 87.232 12.824 87.232C16.1467 87.232 18.6853 87.9787 20.44 89.472C22.232 90.9653 23.128 92.9253 23.128 95.352H17.136C17.136 94.2693 16.7253 93.4293 15.904 92.832C15.12 92.1973 14.0187 91.88 12.6 91.88C11.5173 91.88 10.6213 92.1413 9.912 92.664C9.20267 93.1493 8.848 93.784 8.848 94.568C8.848 95.9867 9.59467 96.92 11.088 97.368L17.304 99.16C19.096 99.6827 20.552 100.579 21.672 101.848C22.792 103.08 23.352 104.517 23.352 106.16C23.352 108.699 22.4373 110.752 20.608 112.32C18.816 113.888 16.296 114.672 13.048 114.672ZM45.2498 87.232C51.5964 87.232 54.7698 90.6853 54.7698 97.592V114H48.6658V100.392C48.6658 97.5547 48.2364 95.52 47.3778 94.288C46.5191 93.056 45.0444 92.44 42.9538 92.44C40.9751 92.44 39.4444 93.0747 38.3618 94.344C37.2791 95.576 36.7378 97.3493 36.7378 99.664V114H30.6338V74.8H36.7378V91.544C38.4178 88.6693 41.2551 87.232 45.2498 87.232ZM85.3125 110.808C82.8485 113.384 79.5072 114.672 75.2885 114.672C71.0698 114.672 67.7098 113.384 65.2085 110.808C62.7445 108.195 61.5125 104.909 61.5125 100.952C61.5125 96.9947 62.7445 93.728 65.2085 91.152C67.7098 88.5387 71.0698 87.232 75.2885 87.232C79.5072 87.232 82.8485 88.5387 85.3125 91.152C87.8138 93.728 89.0645 96.9947 89.0645 100.952C89.0645 104.909 87.8138 108.195 85.3125 110.808ZM69.6325 106.944C71.0138 108.475 72.8992 109.24 75.2885 109.24C77.6778 109.24 79.5445 108.475 80.8885 106.944C82.2698 105.413 82.9605 103.416 82.9605 100.952C82.9605 98.488 82.2698 96.4907 80.8885 94.96C79.5445 93.4293 77.6778 92.664 75.2885 92.664C72.8992 92.664 71.0138 93.4293 69.6325 94.96C68.2885 96.4907 67.6165 98.488 67.6165 100.952C67.6165 103.416 68.2885 105.413 69.6325 106.944ZM105.446 114.672C102.496 114.672 100.144 113.795 98.3898 112.04C96.6351 110.285 95.7578 107.709 95.7578 104.312V87.904H101.862V102.8C101.862 105.003 102.272 106.664 103.094 107.784C103.915 108.904 105.278 109.464 107.182 109.464C109.384 109.464 110.99 108.848 111.998 107.616C113.006 106.347 113.51 104.685 113.51 102.632V87.904H119.614V114H113.51V110.36C111.904 113.235 109.216 114.672 105.446 114.672ZM128.548 114V74.8H134.652V114H128.548ZM162.822 74.8H168.926V114H162.822V110.472C162.075 111.741 160.899 112.768 159.294 113.552C157.726 114.299 156.12 114.672 154.478 114.672C150.408 114.672 147.254 113.384 145.014 110.808C142.774 108.232 141.654 104.947 141.654 100.952C141.654 96.9947 142.83 93.728 145.182 91.152C147.534 88.5387 150.688 87.232 154.646 87.232C156.4 87.232 158.006 87.6053 159.462 88.352C160.918 89.0987 162.038 90.1253 162.822 91.432V74.8ZM155.374 109.24C157.875 109.24 159.779 108.456 161.086 106.888C162.43 105.32 163.102 103.341 163.102 100.952C163.102 98.5627 162.43 96.584 161.086 95.016C159.779 93.448 157.875 92.664 155.374 92.664C153.022 92.664 151.155 93.448 149.774 95.016C148.43 96.5467 147.758 98.5253 147.758 100.952C147.758 103.379 148.43 105.376 149.774 106.944C151.155 108.475 153.022 109.24 155.374 109.24ZM204.81 108.848C206.042 108.848 207.069 108.773 207.89 108.624V114C206.621 114.224 205.109 114.336 203.354 114.336C202.346 114.336 201.469 114.261 200.722 114.112C199.976 113.963 199.098 113.627 198.09 113.104C197.082 112.544 196.298 111.592 195.738 110.248C195.178 108.904 194.898 107.205 194.898 105.152V93H190.474V87.904H194.898V80.008H201.002V87.904H206.994V93H201.002V103.752C201.002 105.843 201.301 107.224 201.898 107.896C202.496 108.531 203.466 108.848 204.81 108.848ZM214.622 114V87.904H220.726V92.944C221.174 91.1893 222.052 89.864 223.358 88.968C224.665 88.0347 226.102 87.568 227.67 87.568C228.678 87.568 229.481 87.6427 230.078 87.792V93.392C229.444 93.3173 228.641 93.28 227.67 93.28C225.505 93.28 223.806 94.0827 222.574 95.688C221.342 97.256 220.726 99.5147 220.726 102.464V114H214.622ZM246.02 114.672C241.951 114.672 238.796 113.384 236.556 110.808C234.316 108.232 233.196 104.947 233.196 100.952C233.196 96.9947 234.372 93.728 236.724 91.152C239.076 88.5387 242.231 87.232 246.188 87.232C247.943 87.232 249.548 87.6053 251.004 88.352C252.46 89.0987 253.58 90.1253 254.364 91.432V87.904H260.468V114H254.364V110.472C253.618 111.741 252.442 112.768 250.836 113.552C249.268 114.299 247.663 114.672 246.02 114.672ZM246.916 109.24C249.418 109.24 251.322 108.456 252.628 106.888C253.972 105.32 254.644 103.341 254.644 100.952C254.644 98.5627 253.972 96.584 252.628 95.016C251.322 93.448 249.418 92.664 246.916 92.664C244.564 92.664 242.698 93.448 241.316 95.016C239.972 96.5467 239.3 98.5253 239.3 100.952C239.3 103.379 239.972 105.376 241.316 106.944C242.698 108.475 244.564 109.24 246.916 109.24ZM276.809 114L265.497 87.904H272.049L279.273 105.824L286.497 87.904H293.049L281.737 114H276.809ZM320.528 99.608C320.528 100.28 320.472 101.4 320.36 102.968H300.984C301.059 105.021 301.731 106.608 303 107.728C304.27 108.811 306.024 109.352 308.264 109.352C311.139 109.352 313.08 108.363 314.088 106.384H320.248C319.838 108.811 318.512 110.808 316.272 112.376C314.07 113.907 311.4 114.672 308.264 114.672C304.158 114.672 300.91 113.44 298.52 110.976C296.131 108.512 294.936 105.171 294.936 100.952C294.936 96.7707 296.112 93.448 298.464 90.984C300.854 88.4827 304.046 87.232 308.04 87.232C311.774 87.232 314.779 88.3893 317.056 90.704C319.371 92.9813 320.528 95.9493 320.528 99.608ZM300.984 98.32H314.536C314.499 96.304 313.902 94.7547 312.744 93.672C311.624 92.5893 310.019 92.048 307.928 92.048C305.8 92.048 304.12 92.6267 302.888 93.784C301.656 94.9413 301.022 96.4533 300.984 98.32ZM327.548 114V74.8H333.652V114H327.548ZM9.912 178L0.28 151.904H7L12.432 169.152L18.088 151.904H24.696L30.352 169.152L35.784 151.904H42.504L32.872 178H27.72L21.392 159.408L15.064 178H9.912ZM54.1336 146.864C53.275 147.723 52.1923 148.152 50.8856 148.152C49.579 148.152 48.4963 147.723 47.6376 146.864C46.779 145.968 46.3496 144.885 46.3496 143.616C46.3496 142.347 46.779 141.283 47.6376 140.424C48.4963 139.528 49.579 139.08 50.8856 139.08C52.1923 139.08 53.275 139.528 54.1336 140.424C54.9923 141.283 55.4216 142.347 55.4216 143.616C55.4216 144.885 54.9923 145.968 54.1336 146.864ZM47.8056 178V151.904H53.9096V178H47.8056ZM74.6869 172.848C75.9189 172.848 76.9456 172.773 77.7669 172.624V178C76.4976 178.224 74.9856 178.336 73.2309 178.336C72.2229 178.336 71.3456 178.261 70.5989 178.112C69.8523 177.963 68.9749 177.627 67.9669 177.104C66.9589 176.544 66.1749 175.592 65.6149 174.248C65.0549 172.904 64.7749 171.205 64.7749 169.152V157H60.3509V151.904H64.7749V144.008H70.8789V151.904H76.8709V157H70.8789V167.752C70.8789 169.843 71.1776 171.224 71.7749 171.896C72.3723 172.531 73.3429 172.848 74.6869 172.848ZM99.1148 151.232C105.461 151.232 108.635 154.685 108.635 161.592V178H102.531V164.392C102.531 161.555 102.101 159.52 101.243 158.288C100.384 157.056 98.9094 156.44 96.8188 156.44C94.8401 156.44 93.3094 157.075 92.2268 158.344C91.1441 159.576 90.6028 161.349 90.6028 163.664V178H84.4988V138.8H90.6028V155.544C92.2828 152.669 95.1201 151.232 99.1148 151.232ZM356.233 165.512V164.896C356.233 163.029 356.439 161.555 356.849 160.472C357.297 159.389 358.287 158.288 359.817 157.168L362.393 155.264C364.745 153.547 365.921 151.4 365.921 148.824C365.921 147.181 365.436 145.875 364.465 144.904C363.532 143.933 362.281 143.448 360.713 143.448C358.735 143.448 357.148 144.027 355.953 145.184C354.796 146.341 354.217 148.059 354.217 150.336H347.777C347.777 146.379 348.953 143.317 351.305 141.152C353.657 138.949 356.887 137.848 360.993 137.848C364.615 137.848 367.452 138.837 369.505 140.816C371.559 142.795 372.585 145.389 372.585 148.6C372.585 150.84 372.1 152.725 371.129 154.256C370.159 155.787 368.703 157.317 366.761 158.848L364.745 160.416C363.775 161.163 363.121 161.835 362.785 162.432C362.487 163.029 362.337 163.795 362.337 164.728V165.512H356.233ZM362.617 177.048C361.684 177.981 360.564 178.448 359.257 178.448C357.951 178.448 356.831 177.981 355.897 177.048C355.001 176.115 354.553 174.995 354.553 173.688C354.553 172.381 355.001 171.28 355.897 170.384C356.831 169.451 357.951 168.984 359.257 168.984C360.564 168.984 361.684 169.451 362.617 170.384C363.551 171.28 364.017 172.381 364.017 173.688C364.017 174.995 363.551 176.115 362.617 177.048Z" fill="#1F3B22"/>
<path d="M140.186 178V144.848H128.818V138.8H158.05V144.848H146.626V178H140.186ZM160.046 178V151.904H166.15V156.944C166.598 155.189 167.476 153.864 168.782 152.968C170.089 152.035 171.526 151.568 173.094 151.568C174.102 151.568 174.905 151.643 175.502 151.792V157.392C174.868 157.317 174.065 157.28 173.094 157.28C170.929 157.28 169.23 158.083 167.998 159.688C166.766 161.256 166.15 163.515 166.15 166.464V178H160.046ZM191.444 178.672C187.375 178.672 184.22 177.384 181.98 174.808C179.74 172.232 178.62 168.947 178.62 164.952C178.62 160.995 179.796 157.728 182.148 155.152C184.5 152.539 187.655 151.232 191.612 151.232C193.367 151.232 194.972 151.605 196.428 152.352C197.884 153.099 199.004 154.125 199.788 155.432V151.904H205.892V178H199.788V174.472C199.042 175.741 197.866 176.768 196.26 177.552C194.692 178.299 193.087 178.672 191.444 178.672ZM192.34 173.24C194.842 173.24 196.746 172.456 198.052 170.888C199.396 169.32 200.068 167.341 200.068 164.952C200.068 162.563 199.396 160.584 198.052 159.016C196.746 157.448 194.842 156.664 192.34 156.664C189.988 156.664 188.122 157.448 186.74 159.016C185.396 160.547 184.724 162.525 184.724 164.952C184.724 167.379 185.396 169.376 186.74 170.944C188.122 172.475 189.988 173.24 192.34 173.24ZM222.233 178L210.921 151.904H217.473L224.697 169.824L231.921 151.904H238.473L227.161 178H222.233ZM265.952 163.608C265.952 164.28 265.896 165.4 265.784 166.968H246.408C246.483 169.021 247.155 170.608 248.424 171.728C249.694 172.811 251.448 173.352 253.688 173.352C256.563 173.352 258.504 172.363 259.512 170.384H265.672C265.262 172.811 263.936 174.808 261.696 176.376C259.494 177.907 256.824 178.672 253.688 178.672C249.582 178.672 246.334 177.44 243.944 174.976C241.555 172.512 240.36 169.171 240.36 164.952C240.36 160.771 241.536 157.448 243.888 154.984C246.278 152.483 249.47 151.232 253.464 151.232C257.198 151.232 260.203 152.389 262.48 154.704C264.795 156.981 265.952 159.949 265.952 163.608ZM246.408 162.32H259.96C259.923 160.304 259.326 158.755 258.168 157.672C257.048 156.589 255.443 156.048 253.352 156.048C251.224 156.048 249.544 156.627 248.312 157.784C247.08 158.941 246.446 160.453 246.408 162.32ZM272.972 178V151.904H279.076V156.944C279.524 155.189 280.401 153.864 281.708 152.968C283.014 152.035 284.452 151.568 286.02 151.568C287.028 151.568 287.83 151.643 288.428 151.792V157.392C287.793 157.317 286.99 157.28 286.02 157.28C283.854 157.28 282.156 158.083 280.924 159.688C279.692 161.256 279.076 163.515 279.076 166.464V178H272.972ZM303.181 178.672C299.895 178.672 297.226 177.832 295.173 176.152C293.119 174.472 292.093 172.419 292.093 169.992H298.197C298.197 171.112 298.682 172.027 299.653 172.736C300.661 173.445 301.949 173.8 303.517 173.8C304.674 173.8 305.589 173.52 306.261 172.96C306.933 172.4 307.269 171.653 307.269 170.72C307.269 169.227 306.615 168.312 305.309 167.976L298.589 166.128C294.818 165.083 292.933 162.675 292.933 158.904C292.933 156.739 293.866 154.928 295.733 153.472C297.599 151.979 300.007 151.232 302.957 151.232C306.279 151.232 308.818 151.979 310.573 153.472C312.365 154.965 313.261 156.925 313.261 159.352H307.269C307.269 158.269 306.858 157.429 306.037 156.832C305.253 156.197 304.151 155.88 302.733 155.88C301.65 155.88 300.754 156.141 300.045 156.664C299.335 157.149 298.981 157.784 298.981 158.568C298.981 159.987 299.727 160.92 301.221 161.368L307.437 163.16C309.229 163.683 310.685 164.579 311.805 165.848C312.925 167.08 313.485 168.517 313.485 170.16C313.485 172.699 312.57 174.752 310.741 176.32C308.949 177.888 306.429 178.672 303.181 178.672ZM344.398 163.608C344.398 164.28 344.342 165.4 344.23 166.968H324.854C324.929 169.021 325.601 170.608 326.87 171.728C328.14 172.811 329.894 173.352 332.134 173.352C335.009 173.352 336.95 172.363 337.958 170.384H344.118C343.708 172.811 342.382 174.808 340.142 176.376C337.94 177.907 335.27 178.672 332.134 178.672C328.028 178.672 324.78 177.44 322.39 174.976C320.001 172.512 318.806 169.171 318.806 164.952C318.806 160.771 319.982 157.448 322.334 154.984C324.724 152.483 327.916 151.232 331.91 151.232C335.644 151.232 338.649 152.389 340.926 154.704C343.241 156.981 344.398 159.949 344.398 163.608ZM324.854 162.32H338.406C338.369 160.304 337.772 158.755 336.614 157.672C335.494 156.589 333.889 156.048 331.798 156.048C329.67 156.048 327.99 156.627 326.758 157.784C325.526 158.941 324.892 160.453 324.854 162.32Z" fill="#61B47C"/>
</svg>
