<svg width="209" height="23" viewBox="0 0 209 23" fill="none" xmlns="http://www.w3.org/2000/svg">
<path d="M0.66 17L2.436 0.199999H3.492L2.652 8.168H12.204L13.044 0.199999H14.076L12.3 17H11.268L12.084 9.128H2.532L1.716 17H0.66ZM26.6529 11.72H17.5569V11.768C17.4129 13.144 17.6769 14.256 18.3489 15.104C19.0369 15.936 20.0129 16.352 21.2769 16.352C22.1889 16.352 23.0049 16.144 23.7249 15.728C24.4449 15.296 24.9649 14.72 25.2849 14H26.2929C25.9729 14.976 25.3409 15.768 24.3969 16.376C23.4529 16.984 22.3889 17.288 21.2049 17.288C19.6209 17.288 18.4049 16.768 17.5569 15.728C16.7089 14.688 16.3729 13.304 16.5489 11.576C16.7249 9.864 17.3409 8.496 18.3969 7.472C19.4529 6.432 20.7569 5.912 22.3089 5.912C23.7969 5.912 24.9489 6.376 25.7649 7.304C26.5969 8.232 26.9409 9.416 26.7969 10.856C26.7809 10.968 26.7649 11.072 26.7489 11.168C26.7329 11.264 26.7169 11.368 26.7009 11.48C26.6849 11.576 26.6689 11.656 26.6529 11.72ZM22.2129 6.776C21.0449 6.776 20.0529 7.152 19.2369 7.904C18.4209 8.64 17.9009 9.624 17.6769 10.856H25.7889C25.9169 9.656 25.6529 8.68 24.9969 7.928C24.3569 7.16 23.4289 6.776 22.2129 6.776ZM39.3199 6.2H40.3519L39.1759 17.528C38.9839 19.352 38.3119 20.68 37.1599 21.512C36.2639 22.184 35.1359 22.52 33.7759 22.52C32.2559 22.52 31.1039 22.152 30.3199 21.416C29.5839 20.744 29.2719 19.824 29.3839 18.656H30.4159C30.3359 19.504 30.5679 20.208 31.1119 20.768C31.6719 21.328 32.5919 21.608 33.8719 21.608C36.4319 21.608 37.8559 20.232 38.1439 17.48L38.5039 14.144C38.1039 15.04 37.5039 15.784 36.7039 16.376C35.9039 16.968 34.9599 17.264 33.8719 17.264C30.9759 17.264 29.6959 15.616 30.0319 12.32L30.6799 6.2H31.6879L31.0639 12.152C30.9199 13.528 31.0799 14.568 31.5439 15.272C32.0079 15.96 32.9039 16.304 34.2319 16.304C35.5119 16.304 36.5519 15.832 37.3519 14.888C38.1519 13.944 38.6159 12.88 38.7439 11.696L39.3199 6.2ZM54.324 16.184C54.964 16.184 55.476 16.128 55.86 16.016L55.764 16.952C55.348 17.08 54.78 17.144 54.06 17.144C53.164 17.144 52.476 16.912 51.996 16.448C51.532 15.968 51.372 15 51.516 13.544L52.188 7.088H49.956L50.052 6.2H52.284L52.692 2.432H53.676L53.268 6.2H56.532L56.436 7.088H53.172L52.524 13.4C52.396 14.52 52.492 15.264 52.812 15.632C53.148 16 53.652 16.184 54.324 16.184ZM65.6025 5.912C66.9945 5.912 67.9945 6.32 68.6025 7.136C69.2265 7.936 69.4585 9.104 69.2985 10.64L68.6265 17H67.5945L68.2185 10.952C68.5065 8.2 67.5065 6.824 65.2185 6.824C63.8905 6.824 62.8345 7.272 62.0505 8.168C61.2665 9.064 60.8025 10.248 60.6585 11.72L60.1065 17H59.0985L60.8745 0.199999H61.8825L60.9225 9.176C61.2585 8.2 61.8265 7.416 62.6265 6.824C63.4265 6.216 64.4185 5.912 65.6025 5.912ZM82.7248 11.72H73.6288V11.768C73.4848 13.144 73.7488 14.256 74.4208 15.104C75.1088 15.936 76.0848 16.352 77.3488 16.352C78.2608 16.352 79.0768 16.144 79.7968 15.728C80.5168 15.296 81.0368 14.72 81.3568 14H82.3648C82.0448 14.976 81.4128 15.768 80.4688 16.376C79.5248 16.984 78.4608 17.288 77.2768 17.288C75.6928 17.288 74.4768 16.768 73.6288 15.728C72.7808 14.688 72.4448 13.304 72.6208 11.576C72.7968 9.864 73.4128 8.496 74.4688 7.472C75.5248 6.432 76.8288 5.912 78.3808 5.912C79.8688 5.912 81.0208 6.376 81.8368 7.304C82.6688 8.232 83.0128 9.416 82.8688 10.856C82.8528 10.968 82.8368 11.072 82.8208 11.168C82.8048 11.264 82.7888 11.368 82.7728 11.48C82.7568 11.576 82.7408 11.656 82.7248 11.72ZM78.2848 6.776C77.1168 6.776 76.1248 7.152 75.3088 7.904C74.4928 8.64 73.9728 9.624 73.7488 10.856H81.8608C81.9888 9.656 81.7248 8.68 81.0688 7.928C80.4288 7.16 79.5008 6.776 78.2848 6.776ZM85.7438 17L86.8718 6.2H87.8798L87.5438 9.44C87.9278 8.272 88.4958 7.4 89.2478 6.824C89.9998 6.232 90.8238 5.936 91.7198 5.936C92.0398 5.936 92.3598 5.968 92.6798 6.032L92.5838 6.992C92.3758 6.944 92.0318 6.92 91.5518 6.92C90.6558 6.92 89.8798 7.224 89.2238 7.832C88.5678 8.44 88.0958 9.136 87.8078 9.92C87.5198 10.688 87.3278 11.504 87.2318 12.368L86.7518 17H85.7438ZM104.029 11.72H94.9326V11.768C94.7886 13.144 95.0526 14.256 95.7246 15.104C96.4126 15.936 97.3886 16.352 98.6526 16.352C99.5646 16.352 100.381 16.144 101.101 15.728C101.821 15.296 102.341 14.72 102.661 14H103.669C103.349 14.976 102.717 15.768 101.773 16.376C100.829 16.984 99.7646 17.288 98.5806 17.288C96.9966 17.288 95.7806 16.768 94.9326 15.728C94.0846 14.688 93.7486 13.304 93.9246 11.576C94.1006 9.864 94.7166 8.496 95.7726 7.472C96.8286 6.432 98.1326 5.912 99.6846 5.912C101.173 5.912 102.325 6.376 103.141 7.304C103.973 8.232 104.317 9.416 104.173 10.856C104.157 10.968 104.141 11.072 104.125 11.168C104.109 11.264 104.093 11.368 104.077 11.48C104.061 11.576 104.045 11.656 104.029 11.72ZM99.5886 6.776C98.4206 6.776 97.4286 7.152 96.6126 7.904C95.7966 8.64 95.2766 9.624 95.0526 10.856H103.165C103.293 9.656 103.029 8.68 102.373 7.928C101.733 7.16 100.805 6.776 99.5886 6.776ZM107.107 19.808C106.899 19.808 106.707 19.784 106.531 19.736L106.603 19.064C106.715 19.096 106.899 19.112 107.155 19.112C107.539 19.112 107.859 18.992 108.115 18.752C108.387 18.528 108.563 18.224 108.643 17.84C108.739 17.488 108.739 17.128 108.643 16.76C108.467 16.984 108.203 17.096 107.851 17.096C107.515 17.096 107.251 16.984 107.059 16.76C106.867 16.536 106.787 16.256 106.819 15.92C106.851 15.584 106.987 15.304 107.227 15.08C107.483 14.856 107.795 14.744 108.163 14.744C108.675 14.744 109.075 14.968 109.363 15.416C109.667 15.864 109.779 16.448 109.699 17.168C109.619 17.968 109.339 18.608 108.859 19.088C108.379 19.568 107.795 19.808 107.107 19.808ZM122.608 3.728C122.272 3.728 122 3.616 121.792 3.392C121.6 3.152 121.52 2.864 121.552 2.528C121.584 2.192 121.728 1.912 121.984 1.688C122.24 1.464 122.536 1.352 122.872 1.352C123.224 1.352 123.496 1.464 123.688 1.688C123.88 1.912 123.96 2.192 123.928 2.528C123.896 2.864 123.752 3.152 123.496 3.392C123.256 3.616 122.96 3.728 122.608 3.728ZM118.624 22.376C118 22.376 117.504 22.272 117.136 22.064L117.232 21.08C117.632 21.288 118.088 21.392 118.6 21.392C119.112 21.392 119.528 21.2 119.848 20.816C120.184 20.432 120.392 19.896 120.472 19.208L121.84 6.2H122.848L121.456 19.4C121.36 20.328 121.056 21.056 120.544 21.584C120.048 22.112 119.408 22.376 118.624 22.376ZM130.453 17.288C129.125 17.288 128.109 16.888 127.405 16.088C126.717 15.288 126.453 14.12 126.613 12.584L127.285 6.2H128.293L127.645 12.368C127.517 13.584 127.709 14.552 128.221 15.272C128.733 15.992 129.589 16.352 130.789 16.352C132.085 16.352 133.117 15.88 133.885 14.936C134.669 13.976 135.125 12.904 135.253 11.72L135.829 6.2H136.837L135.709 17H134.701L135.013 14.072C134.661 14.984 134.077 15.752 133.261 16.376C132.445 16.984 131.509 17.288 130.453 17.288ZM143.568 17.288C142.224 17.288 141.2 16.96 140.496 16.304C139.808 15.648 139.512 14.848 139.608 13.904H140.616C140.536 14.608 140.76 15.2 141.288 15.68C141.816 16.16 142.608 16.4 143.664 16.4C144.544 16.4 145.264 16.216 145.824 15.848C146.4 15.464 146.72 14.936 146.784 14.264C146.832 13.8 146.744 13.384 146.52 13.016C146.312 12.648 145.968 12.408 145.488 12.296L142.416 11.528C140.928 11.144 140.264 10.24 140.424 8.816C140.52 7.936 140.952 7.232 141.72 6.704C142.504 6.176 143.464 5.912 144.6 5.912C145.816 5.912 146.736 6.184 147.36 6.728C148 7.272 148.272 8.016 148.176 8.96H147.168C147.232 8.288 147.016 7.752 146.52 7.352C146.04 6.952 145.336 6.752 144.408 6.752C143.608 6.752 142.928 6.928 142.368 7.28C141.808 7.632 141.496 8.144 141.432 8.816C141.336 9.792 141.872 10.416 143.04 10.688L145.896 11.432C146.664 11.624 147.192 11.976 147.48 12.488C147.768 12.984 147.88 13.544 147.816 14.168C147.72 15.144 147.288 15.912 146.52 16.472C145.752 17.016 144.768 17.288 143.568 17.288ZM154.351 16.184C154.991 16.184 155.503 16.128 155.887 16.016L155.791 16.952C155.375 17.08 154.807 17.144 154.087 17.144C153.191 17.144 152.503 16.912 152.023 16.448C151.559 15.968 151.399 15 151.543 13.544L152.215 7.088H149.983L150.079 6.2H152.311L152.719 2.432H153.703L153.295 6.2H156.559L156.463 7.088H153.199L152.551 13.4C152.423 14.52 152.519 15.264 152.839 15.632C153.175 16 153.679 16.184 154.351 16.184ZM165.697 17L167.473 0.199999H168.481L166.705 17H165.697ZM179.855 15.656C178.735 16.744 177.351 17.288 175.703 17.288C174.055 17.288 172.783 16.744 171.887 15.656C171.007 14.552 170.655 13.192 170.831 11.576C170.991 9.976 171.631 8.632 172.751 7.544C173.871 6.44 175.255 5.888 176.903 5.888C178.551 5.888 179.815 6.432 180.695 7.52C181.591 8.608 181.959 9.96 181.799 11.576C181.623 13.192 180.975 14.552 179.855 15.656ZM172.703 14.96C173.423 15.872 174.455 16.328 175.799 16.328C177.143 16.328 178.271 15.872 179.183 14.96C180.111 14.048 180.647 12.92 180.791 11.576C180.919 10.248 180.615 9.128 179.879 8.216C179.159 7.304 178.127 6.848 176.783 6.848C175.439 6.848 174.311 7.304 173.399 8.216C172.487 9.128 171.967 10.256 171.839 11.6C171.695 12.928 171.983 14.048 172.703 14.96ZM193.342 15.656C192.222 16.744 190.838 17.288 189.19 17.288C187.542 17.288 186.27 16.744 185.374 15.656C184.494 14.552 184.142 13.192 184.318 11.576C184.478 9.976 185.118 8.632 186.238 7.544C187.358 6.44 188.742 5.888 190.39 5.888C192.038 5.888 193.302 6.432 194.182 7.52C195.078 8.608 195.446 9.96 195.286 11.576C195.11 13.192 194.462 14.552 193.342 15.656ZM186.19 14.96C186.91 15.872 187.942 16.328 189.286 16.328C190.63 16.328 191.758 15.872 192.67 14.96C193.598 14.048 194.134 12.92 194.278 11.576C194.406 10.248 194.102 9.128 193.366 8.216C192.646 7.304 191.614 6.848 190.27 6.848C188.926 6.848 187.798 7.304 186.886 8.216C185.974 9.128 185.454 10.256 185.326 11.6C185.182 12.928 185.47 14.048 186.19 14.96ZM208.078 6.2L201.094 11.504L206.95 17H205.534L199.822 11.648L199.27 17H198.262L200.038 0.199999H201.046L199.846 11.456L206.686 6.2H208.078Z" fill="#1F3B22"/>
</svg>
