<svg width="585" height="99" viewBox="0 0 585 99" fill="none" xmlns="http://www.w3.org/2000/svg">
<path d="M5.4 65V14.6H13.68V57.224H33.912V65H5.4ZM55.8152 65.864C50.5832 65.864 46.5272 64.208 43.6472 60.896C40.7672 57.584 39.3272 53.36 39.3272 48.224C39.3272 43.136 40.8392 38.936 43.8632 35.624C46.8872 32.264 50.9432 30.584 56.0312 30.584C58.2872 30.584 60.3512 31.064 62.2232 32.024C64.0952 32.984 65.5352 34.304 66.5432 35.984V31.448H74.3912V65H66.5432V60.464C65.5832 62.096 64.0712 63.416 62.0072 64.424C59.9912 65.384 57.9272 65.864 55.8152 65.864ZM56.9672 58.88C60.1832 58.88 62.6312 57.872 64.3112 55.856C66.0392 53.84 66.9032 51.296 66.9032 48.224C66.9032 45.152 66.0392 42.608 64.3112 40.592C62.6312 38.576 60.1832 37.568 56.9672 37.568C53.9432 37.568 51.5432 38.576 49.7672 40.592C48.0392 42.56 47.1752 45.104 47.1752 48.224C47.1752 51.344 48.0392 53.912 49.7672 55.928C51.5432 57.896 53.9432 58.88 56.9672 58.88ZM97.6326 65.864C93.4086 65.864 89.9766 64.784 87.3366 62.624C84.6966 60.464 83.3766 57.824 83.3766 54.704H91.2246C91.2246 56.144 91.8486 57.32 93.0966 58.232C94.3926 59.144 96.0486 59.6 98.0646 59.6C99.5526 59.6 100.729 59.24 101.593 58.52C102.457 57.8 102.889 56.84 102.889 55.64C102.889 53.72 102.049 52.544 100.369 52.112L91.7286 49.736C86.8806 48.392 84.4566 45.296 84.4566 40.448C84.4566 37.664 85.6566 35.336 88.0566 33.464C90.4566 31.544 93.5526 30.584 97.3446 30.584C101.617 30.584 104.881 31.544 107.137 33.464C109.441 35.384 110.593 37.904 110.593 41.024H102.889C102.889 39.632 102.361 38.552 101.305 37.784C100.297 36.968 98.8806 36.56 97.0566 36.56C95.6646 36.56 94.5126 36.896 93.6006 37.568C92.6886 38.192 92.2326 39.008 92.2326 40.016C92.2326 41.84 93.1926 43.04 95.1126 43.616L103.105 45.92C105.409 46.592 107.281 47.744 108.721 49.376C110.161 50.96 110.881 52.808 110.881 54.92C110.881 58.184 109.705 60.824 107.353 62.84C105.049 64.856 101.809 65.864 97.6326 65.864ZM134.732 58.376C136.316 58.376 137.636 58.28 138.692 58.088V65C137.06 65.288 135.116 65.432 132.86 65.432C131.564 65.432 130.436 65.336 129.476 65.144C128.516 64.952 127.388 64.52 126.092 63.848C124.796 63.128 123.788 61.904 123.068 60.176C122.348 58.448 121.988 56.264 121.988 53.624V38H116.3V31.448H121.988V21.296H129.836V31.448H137.54V38H129.836V51.824C129.836 54.512 130.22 56.288 130.988 57.152C131.756 57.968 133.004 58.376 134.732 58.376ZM166.787 65V31.448H174.635V36.128C175.403 34.496 176.627 33.176 178.307 32.168C179.987 31.112 181.883 30.584 183.995 30.584C189.323 30.584 192.851 32.576 194.579 36.56C195.395 34.832 196.739 33.416 198.611 32.312C200.483 31.16 202.571 30.584 204.875 30.584C212.939 30.584 216.971 34.976 216.971 43.76V65H209.123V45.272C209.123 39.944 207.035 37.28 202.859 37.28C200.651 37.28 198.923 38.024 197.675 39.512C196.427 40.952 195.803 43.52 195.803 47.216V65H187.955V45.2C187.955 39.92 185.915 37.28 181.835 37.28C179.579 37.28 177.803 38.024 176.507 39.512C175.259 40.952 174.635 43.52 174.635 47.216V65H166.787ZM236.269 24.968C235.165 26.072 233.773 26.624 232.093 26.624C230.413 26.624 229.021 26.072 227.917 24.968C226.813 23.816 226.261 22.424 226.261 20.792C226.261 19.16 226.813 17.792 227.917 16.688C229.021 15.536 230.413 14.96 232.093 14.96C233.773 14.96 235.165 15.536 236.269 16.688C237.373 17.792 237.925 19.16 237.925 20.792C237.925 22.424 237.373 23.816 236.269 24.968ZM228.133 65V31.448H235.981V65H228.133ZM247.503 65V31.448H255.351V36.128C257.511 32.432 261.159 30.584 266.295 30.584C274.455 30.584 278.535 35.024 278.535 43.904V65H270.687V47.504C270.687 43.856 270.135 41.24 269.031 39.656C267.927 38.072 266.031 37.28 263.343 37.28C260.799 37.28 258.831 38.096 257.439 39.728C256.047 41.312 255.351 43.592 255.351 46.568V65H247.503ZM301.82 65.864C298.028 65.864 295.004 64.736 292.748 62.48C290.492 60.224 289.364 56.912 289.364 52.544V31.448H297.212V50.6C297.212 53.432 297.74 55.568 298.796 57.008C299.852 58.448 301.604 59.168 304.052 59.168C306.884 59.168 308.948 58.376 310.244 56.792C311.54 55.16 312.188 53.024 312.188 50.384V31.448H320.036V65H312.188V60.32C310.124 64.016 306.668 65.864 301.82 65.864ZM346.715 58.376C348.299 58.376 349.619 58.28 350.675 58.088V65C349.043 65.288 347.099 65.432 344.843 65.432C343.547 65.432 342.419 65.336 341.459 65.144C340.499 64.952 339.371 64.52 338.075 63.848C336.779 63.128 335.771 61.904 335.051 60.176C334.331 58.448 333.971 56.264 333.971 53.624V38H328.283V31.448H333.971V21.296H341.819V31.448H349.523V38H341.819V51.824C341.819 54.512 342.203 56.288 342.971 57.152C343.739 57.968 344.987 58.376 346.715 58.376ZM389.363 46.496C389.363 47.36 389.291 48.8 389.147 50.816H364.235C364.331 53.456 365.195 55.496 366.827 56.936C368.459 58.328 370.715 59.024 373.595 59.024C377.291 59.024 379.787 57.752 381.083 55.208H389.003C388.475 58.328 386.771 60.896 383.891 62.912C381.059 64.88 377.627 65.864 373.595 65.864C368.315 65.864 364.139 64.28 361.067 61.112C357.995 57.944 356.459 53.648 356.459 48.224C356.459 42.848 357.971 38.576 360.995 35.408C364.067 32.192 368.171 30.584 373.307 30.584C378.107 30.584 381.971 32.072 384.899 35.048C387.875 37.976 389.363 41.792 389.363 46.496ZM364.235 44.84H381.659C381.611 42.248 380.843 40.256 379.355 38.864C377.915 37.472 375.851 36.776 373.163 36.776C370.427 36.776 368.267 37.52 366.683 39.008C365.099 40.496 364.283 42.44 364.235 44.84Z" fill="#1F3B22"/>
<path d="M433.02 58.376C434.604 58.376 435.924 58.28 436.98 58.088V65C435.348 65.288 433.404 65.432 431.148 65.432C429.852 65.432 428.724 65.336 427.764 65.144C426.804 64.952 425.676 64.52 424.38 63.848C423.084 63.128 422.076 61.904 421.356 60.176C420.636 58.448 420.276 56.264 420.276 53.624V38H414.588V31.448H420.276V21.296H428.124V31.448H435.828V38H428.124V51.824C428.124 54.512 428.508 56.288 429.276 57.152C430.044 57.968 431.292 58.376 433.02 58.376ZM473.363 60.896C470.195 64.208 465.899 65.864 460.475 65.864C455.051 65.864 450.731 64.208 447.515 60.896C444.347 57.536 442.763 53.312 442.763 48.224C442.763 43.136 444.347 38.936 447.515 35.624C450.731 32.264 455.051 30.584 460.475 30.584C465.899 30.584 470.195 32.264 473.363 35.624C476.579 38.936 478.187 43.136 478.187 48.224C478.187 53.312 476.579 57.536 473.363 60.896ZM453.203 55.928C454.979 57.896 457.403 58.88 460.475 58.88C463.547 58.88 465.947 57.896 467.675 55.928C469.451 53.96 470.339 51.392 470.339 48.224C470.339 45.056 469.451 42.488 467.675 40.52C465.947 38.552 463.547 37.568 460.475 37.568C457.403 37.568 454.979 38.552 453.203 40.52C451.475 42.488 450.611 45.056 450.611 48.224C450.611 51.392 451.475 53.96 453.203 55.928ZM499.249 65.864C495.457 65.864 492.433 64.736 490.177 62.48C487.921 60.224 486.793 56.912 486.793 52.544V31.448H494.641V50.6C494.641 53.432 495.169 55.568 496.225 57.008C497.281 58.448 499.033 59.168 501.481 59.168C504.313 59.168 506.377 58.376 507.673 56.792C508.969 55.16 509.617 53.024 509.617 50.384V31.448H517.465V65H509.617V60.32C507.553 64.016 504.097 65.864 499.249 65.864ZM528.952 65V31.448H536.8V37.928C537.376 35.672 538.504 33.968 540.184 32.816C541.864 31.616 543.712 31.016 545.728 31.016C547.024 31.016 548.056 31.112 548.824 31.304V38.504C548.008 38.408 546.976 38.36 545.728 38.36C542.944 38.36 540.76 39.392 539.176 41.456C537.592 43.472 536.8 46.376 536.8 50.168V65H528.952ZM567.793 65.864C563.569 65.864 560.137 64.784 557.497 62.624C554.857 60.464 553.537 57.824 553.537 54.704H561.385C561.385 56.144 562.009 57.32 563.257 58.232C564.553 59.144 566.209 59.6 568.225 59.6C569.713 59.6 570.889 59.24 571.753 58.52C572.617 57.8 573.049 56.84 573.049 55.64C573.049 53.72 572.209 52.544 570.529 52.112L561.889 49.736C557.041 48.392 554.617 45.296 554.617 40.448C554.617 37.664 555.817 35.336 558.217 33.464C560.617 31.544 563.713 30.584 567.505 30.584C571.777 30.584 575.041 31.544 577.297 33.464C579.601 35.384 580.753 37.904 580.753 41.024H573.049C573.049 39.632 572.521 38.552 571.465 37.784C570.457 36.968 569.041 36.56 567.217 36.56C565.825 36.56 564.673 36.896 563.761 37.568C562.849 38.192 562.393 39.008 562.393 40.016C562.393 41.84 563.353 43.04 565.273 43.616L573.265 45.92C575.569 46.592 577.441 47.744 578.881 49.376C580.321 50.96 581.041 52.808 581.041 54.92C581.041 58.184 579.865 60.824 577.513 62.84C575.209 64.856 571.969 65.864 567.793 65.864Z" fill="#61B47C"/>
<path d="M423 95C440.14 85.3445 496.335 68.3711 584 77.7217" stroke="#61B47C" stroke-width="9"/>
</svg>
